<svg xmlns="http://www.w3.org/2000/svg" viewBox="0 0 512 512"><title>StreamLine</title><polygon points="156 210.77 156 205.15 160.53 202.17 269.94 231.09 275.11 238.54 284.85 235.68 335.25 246.84 331.99 250.66 285.42 239.68 275.4 245.13 267.61 236.46 156 210.77" style="fill:#002c3d"/><polygon points="492.11 301.95 412.86 271.29 328.52 241.79 274.55 227.19 160.54 194.64 151.98 202.51 149.59 206.95 128.02 229.55 120.83 256.26 122.89 285.37 127.68 298.38 113.98 313.1 103.02 327.83 94.46 347 88.98 361.05 87.27 374.06 85.9 389.47 87.61 404.57 107.82 407 131.87 407 158.84 404.07 186.92 399.85 246.16 388.5 355.7 368.24 419.31 335.92 496.53 314.3 492.11 301.95" style="fill:#fff;stroke:#002c3d;stroke-miterlimit:10;stroke-width:4px"/><polygon points="66.09 400.76 62.3 384.91 64.19 373.71 64.28 357.51 68.43 345.56 72.39 324.36 85.82 305.47 110 298.2 110 294.62 103.63 279.48 101.31 252.56 113.3 221.44 133.68 206.91 145.24 202.94 152.56 196.77 159.1 202.93 196.67 217.2 203.32 253.35 227.45 261.65 230.44 271.97 212.47 297.6 147.89 357.85 127.26 386.15 127.67 399.4 131.1 412 105.58 412 85.9 409.09 66.09 400.76" style="fill:#fff;stroke:#002c3d;stroke-miterlimit:10;stroke-width:4px"/><polygon points="134.2 213.13 149.64 206.91 166.4 210.69 180.09 226.11 188.98 252.83 176.31 282.68 151.65 299.18 121.68 300.41 114.32 293.05 108.16 279.73 105.54 252.68 116.73 225.85 134.2 213.13" style="fill:#002c3d"/><polygon points="70.31 399.23 87.52 404.43 85.86 389.51 87.25 374.08 88.97 361.06 94.46 347.01 103.02 327.83 113.98 313.11 127.68 298.38 124.59 296.18 90.01 311.05 78.03 328.51 72.14 346.66 69 359.68 69 375.09 67.88 385.36 70.31 399.23" style="fill:#002c3d"/><polygon points="120.21 244.58 126.5 249.07 126.5 256.38 124.06 264.5 117.53 264.5 113.3 257.91 115.45 249.89 120.21 244.58" style="fill:#fff;stroke:#002c3d;stroke-miterlimit:10"/><polygon points="131.1 390.49 138.98 375.77 158.16 360.02 167.06 346.32 185.21 328.17 217.16 300.6 232.49 277.47 338.18 294.31 387.49 308 450.84 308 352.61 362.36 172.88 397.94 132.82 402.78 131.1 390.49" style="fill:#002c3d"/><path d="M163.29,296.67l16.44,3.93,11-10.44,23.29-24,126.36,21.92,49,14.15L489,306.89l-68.39-21.26L366,279.94l-23.91-16-17.12,3.61-63.69-10.62-17.46,2.4s-24.08-5.36-23.85-5.08S202,248.73,202,248.73l-11-9.93,2.74,15.47-12.33,29.39Z" style="fill:#002c3d"/><polygon points="180.89 374.27 155.55 378.54 117.49 380.5 85.66 380.5 70.22 375.2 62.5 370.99 62.5 367.12 70.3 370.6 87.33 374.08 117.92 375.23 155.67 374.84 180.89 374.27" style="fill:#fff;stroke:#002c3d;stroke-miterlimit:10"/><polygon points="187.75 360.2 164.95 364.82 119.83 365.79 90.14 364.53 71.77 362.56 61.5 359.04 61.5 355.96 73.23 359.43 91.7 360.77 120.96 362.5 166.13 362.5 187.75 360.2" style="fill:#fff;stroke:#002c3d;stroke-miterlimit:10"/><polygon points="208.26 345.28 171.74 350.2 123.66 350.5 92.83 350.5 78.17 349.65 63.91 346.25 66.23 341.66 79.72 347.07 94.46 347 122.5 347.09 171.84 346.32 208.26 345.28" style="fill:#fff;stroke:#002c3d;stroke-miterlimit:10"/><polygon points="253.16 329.75 194.55 330.58 165.66 329.01 106.69 329.76 93.2 330.14 73.69 330.91 66.5 331.68 66.5 328.08 74.5 327.44 93.3 325.89 107.51 325.51 168 324.35 195.36 326.28 253.16 329.75" style="fill:#fff;stroke:#002c3d;stroke-miterlimit:10"/></svg>